<svg width="20" height="21" viewBox="0 0 20 21" fill="none" xmlns="http://www.w3.org/2000/svg">
<g clip-path="url(#clip0_202_13156)">
<path d="M11.8961 2.96328C11.9173 2.88396 11.954 2.8096 12.0039 2.74445C12.0539 2.67929 12.1162 2.62462 12.1873 2.58356C12.2584 2.54249 12.3369 2.51584 12.4183 2.50512C12.4997 2.49441 12.5824 2.49983 12.6617 2.5211C13.8204 2.8234 14.8775 3.4291 15.7242 4.27581C16.5709 5.12252 17.1766 6.17964 17.4789 7.33828C17.5002 7.41759 17.5056 7.50031 17.4949 7.58171C17.4842 7.66312 17.4575 7.74161 17.4165 7.81271C17.3754 7.88382 17.3207 7.94613 17.2556 7.99609C17.1904 8.04606 17.116 8.08269 17.0367 8.10391C16.9839 8.11778 16.9296 8.12486 16.875 8.125C16.7373 8.125 16.6034 8.0795 16.4942 7.99558C16.385 7.91166 16.3066 7.79402 16.2711 7.66094C16.0245 6.7151 15.5302 5.85212 14.8391 5.16096C14.1479 4.4698 13.2849 3.97546 12.3391 3.72891C12.2597 3.70778 12.1852 3.6712 12.12 3.62127C12.0548 3.57134 12 3.50904 11.9589 3.43793C11.9177 3.36682 11.891 3.2883 11.8802 3.20686C11.8695 3.12541 11.8749 3.04264 11.8961 2.96328ZM11.7141 6.22891C12.7914 6.51641 13.4836 7.2086 13.7711 8.28594C13.8066 8.41902 13.885 8.53666 13.9942 8.62058C14.1034 8.7045 14.2373 8.75 14.375 8.75C14.4296 8.74986 14.4839 8.74278 14.5367 8.72891C14.616 8.70769 14.6904 8.67106 14.7556 8.62109C14.8207 8.57113 14.8754 8.50882 14.9165 8.43771C14.9575 8.36661 14.9842 8.28812 14.9949 8.20671C15.0056 8.12531 15.0002 8.04259 14.9789 7.96328C14.5789 6.46641 13.5336 5.4211 12.0367 5.0211C11.9574 4.99991 11.8747 4.99455 11.7933 5.00533C11.712 5.0161 11.6335 5.0428 11.5624 5.0839C11.4914 5.125 11.4291 5.17969 11.3792 5.24485C11.3293 5.31001 11.2927 5.38437 11.2715 5.46367C11.2503 5.54298 11.2449 5.62568 11.2557 5.70706C11.2665 5.78844 11.2932 5.86689 11.3343 5.93795C11.3754 6.00901 11.4301 6.07128 11.4952 6.1212C11.5604 6.17112 11.6348 6.20772 11.7141 6.22891ZM18.1156 13.6781C17.9763 14.7367 17.4564 15.7085 16.6531 16.4118C15.8497 17.1151 14.8177 17.5019 13.75 17.5C7.54688 17.5 2.50001 12.4531 2.50001 6.25C2.49809 5.18226 2.88492 4.15033 3.58824 3.34695C4.29155 2.54357 5.26326 2.02368 6.32188 1.88438C6.58958 1.85169 6.86067 1.90646 7.09468 2.0405C7.3287 2.17455 7.51309 2.38068 7.62032 2.62813L9.27032 6.31172V6.3211C9.35242 6.51051 9.38633 6.71731 9.36901 6.92303C9.3517 7.12875 9.2837 7.32697 9.1711 7.5C9.15704 7.5211 9.14219 7.54063 9.12657 7.56016L7.50001 9.48828C8.08516 10.6773 9.32891 11.9102 10.5336 12.4969L12.4352 10.8789C12.4538 10.8632 12.4734 10.8486 12.4938 10.8352C12.6666 10.7198 12.8655 10.6495 13.0725 10.6304C13.2794 10.6113 13.4878 10.6441 13.6789 10.7258L13.6891 10.7305L17.3695 12.3797C17.6174 12.4865 17.8241 12.6708 17.9585 12.9048C18.093 13.1389 18.1481 13.4102 18.1156 13.6781ZM16.875 13.5219H16.8664L13.1945 11.8773L11.2922 13.4953C11.2737 13.5109 11.2544 13.5256 11.2344 13.5391C11.0545 13.6591 10.8466 13.7304 10.6309 13.746C10.4152 13.7616 10.1992 13.721 10.0039 13.6281C8.54063 12.9211 7.08204 11.4734 6.37423 10.0258C6.2805 9.83192 6.23844 9.61713 6.25213 9.40224C6.26582 9.18734 6.33478 8.97963 6.45235 8.79922C6.4656 8.77804 6.48049 8.75792 6.49688 8.73906L8.12501 6.8086L6.48438 3.13672C6.48407 3.1336 6.48407 3.13046 6.48438 3.12735C5.72677 3.22617 5.03116 3.59779 4.52783 4.17259C4.0245 4.7474 3.74796 5.48597 3.75001 6.25C3.7529 8.90128 4.8074 11.4431 6.68214 13.3179C8.55687 15.1926 11.0987 16.2471 13.75 16.25C14.5136 16.2526 15.2519 15.9771 15.8271 15.4748C16.4022 14.9726 16.7747 14.278 16.875 13.5211V13.5219Z" fill="white"/>
</g>
<defs>
<clipPath id="clip0_202_13156">
<rect width="20" height="20" fill="white" transform="translate(0 0.0397797)"/>
</clipPath>
</defs>
</svg>
