<svg width="20" height="21" viewBox="0 0 20 21" fill="none" xmlns="http://www.w3.org/2000/svg">
<g clip-path="url(#clip0_244_6695)">
<path d="M14.6545 11.6395L12.1545 10.3895C12.0561 10.3405 11.9465 10.3182 11.8368 10.3251C11.727 10.332 11.621 10.3676 11.5295 10.4286L10.3819 11.1942C9.85502 10.9046 9.42147 10.471 9.13185 9.94418L9.89748 8.79652C9.95839 8.70499 9.99407 8.599 10.0009 8.48927C10.0078 8.37953 9.98558 8.26993 9.93654 8.17152L8.68654 5.67152C8.63473 5.56689 8.55464 5.47886 8.45536 5.41742C8.35608 5.35597 8.24158 5.32356 8.12482 5.32387C7.29602 5.32387 6.50116 5.65311 5.91511 6.23916C5.32906 6.82521 4.99982 7.62007 4.99982 8.44887C5.00189 10.2716 5.72688 12.0191 7.01574 13.3079C8.30461 14.5968 10.0521 15.3218 11.8748 15.3239C12.2852 15.3239 12.6916 15.243 13.0707 15.086C13.4498 14.9289 13.7943 14.6988 14.0845 14.4086C14.3747 14.1184 14.6049 13.7739 14.7619 13.3948C14.919 13.0156 14.9998 12.6092 14.9998 12.1989C14.9999 12.0828 14.9676 11.9689 14.9066 11.8701C14.8457 11.7713 14.7583 11.6915 14.6545 11.6395ZM11.8748 14.0739C10.3835 14.0722 8.9537 13.4791 7.89917 12.4245C6.84464 11.37 6.25147 9.9402 6.24982 8.44887C6.2497 8.01537 6.39979 7.59522 6.67456 7.25992C6.94932 6.92461 7.33178 6.69488 7.75685 6.60981L8.65373 8.40668L7.89044 9.54262C7.83341 9.62818 7.79836 9.72649 7.78841 9.82883C7.77846 9.93118 7.79392 10.0344 7.83341 10.1293C8.28059 11.1921 9.12608 12.0376 10.1889 12.4848C10.2841 12.5261 10.3881 12.5429 10.4915 12.5339C10.5949 12.5249 10.6944 12.4903 10.7811 12.4332L11.9225 11.6723L13.7194 12.5692C13.6336 12.9947 13.4029 13.3774 13.0665 13.6518C12.7301 13.9262 12.3089 14.0754 11.8748 14.0739ZM9.99982 2.19887C8.59706 2.19856 7.21811 2.56144 5.9972 3.25217C4.77629 3.94291 3.75501 4.93797 3.03277 6.14051C2.31052 7.34305 1.91192 8.71209 1.87575 10.1144C1.83958 11.5167 2.16709 12.9044 2.82638 14.1426L1.93966 16.8028C1.86621 17.023 1.85556 17.2594 1.90888 17.4853C1.96221 17.7113 2.07741 17.9179 2.24158 18.0821C2.40575 18.2463 2.61239 18.3615 2.83836 18.4148C3.06432 18.4681 3.30067 18.4575 3.52091 18.384L6.18107 17.4973C7.27073 18.0769 8.47811 18.4006 9.71156 18.4439C10.945 18.4872 12.1721 18.2489 13.2997 17.7471C14.4273 17.2453 15.4258 16.4933 16.2194 15.548C17.0129 14.6027 17.5807 13.4891 17.8796 12.2916C18.1785 11.0942 18.2007 9.84434 17.9445 8.63702C17.6882 7.42971 17.1603 6.29663 16.4008 5.3238C15.6413 4.35097 14.6701 3.56396 13.561 3.0225C12.4519 2.48105 11.234 2.19937 9.99982 2.19887ZM9.99982 17.1989C8.79121 17.1997 7.6038 16.8814 6.55763 16.2762C6.48104 16.2318 6.39587 16.2042 6.30779 16.1951C6.2197 16.1861 6.13071 16.1959 6.0467 16.2239L3.12482 17.1989L4.09904 14.277C4.12712 14.193 4.13705 14.1041 4.12816 14.016C4.11927 13.9279 4.09177 13.8427 4.04748 13.7661C3.28964 12.4558 2.98537 10.9321 3.18187 9.43134C3.37837 7.93054 4.06466 6.53654 5.13426 5.46558C6.20387 4.39462 7.597 3.70658 9.09755 3.50818C10.5981 3.30979 12.1222 3.61213 13.4334 4.36831C14.7445 5.12449 15.7695 6.29223 16.3493 7.69039C16.9291 9.08855 17.0313 10.639 16.64 12.1011C16.2487 13.5633 15.3858 14.8554 14.1852 15.7772C12.9846 16.6989 11.5134 17.1986 9.99982 17.1989Z" fill="white"/>
</g>
<defs>
<clipPath id="clip0_244_6695">
<rect width="20" height="20" fill="white" transform="translate(0 0.323868)"/>
</clipPath>
</defs>
</svg>
